<svg width="19" height="19" viewBox="0 0 19 19" fill="none" xmlns="http://www.w3.org/2000/svg">
<path fill-rule="evenodd" clip-rule="evenodd" d="M0.179835 0.929707C0.535302 0.181462 1.41845 -0.112365 2.15151 0.273457L16.9298 8.05178C17.4389 8.09896 17.9035 8.41647 18.1203 8.92971C18.1333 8.96051 18.1436 8.99225 18.1544 9.02346C18.3674 9.44364 18.3933 9.95393 18.1798 10.4033C17.9099 10.9716 17.3366 11.2772 16.755 11.2227L2.06265 18.0967C1.31228 18.4477 0.442502 18.1138 0.120264 17.3506C-0.201836 16.5875 0.145346 15.684 0.895655 15.333L13.3009 9.52834L0.864405 2.98342C0.131314 2.59758 -0.17561 1.67801 0.179835 0.929707Z" fill="#586983"/>
</svg>
