<svg width="19" height="19" viewBox="0 0 19 19" fill="none" xmlns="http://www.w3.org/2000/svg">
<path fill-rule="evenodd" clip-rule="evenodd" d="M0.179809 0.929673C0.535326 0.181545 1.41847 -0.112372 2.15149 0.273423L16.9279 8.05077C17.4377 8.09732 17.9032 8.41583 18.1202 8.92967C18.1336 8.96141 18.1443 8.99419 18.1554 9.02635C18.3671 9.44598 18.3927 9.95489 18.1798 10.4033C17.9099 10.9715 17.3365 11.2771 16.755 11.2226L2.06262 18.0967C1.31225 18.4477 0.442476 18.1138 0.120239 17.3506C-0.201809 16.5874 0.145344 15.684 0.895629 15.333L13.3009 9.52831L0.864379 2.98338C0.131288 2.59755 -0.175636 1.67797 0.179809 0.929673Z" fill="#90A2B3"/>
</svg>
